<svg width="1568" height="1568" viewBox="0 0 1568 1568" fill="none" xmlns="http://www.w3.org/2000/svg">
<path d="M708.501 221.244H212.667C175.095 221.244 139.061 236.17 112.493 262.737C85.9256 289.305 71 325.339 71 362.911V1354.58C71 1392.15 85.9256 1428.19 112.493 1454.75C139.061 1481.32 175.095 1496.25 212.667 1496.25H1204.34C1241.91 1496.25 1277.94 1481.32 1304.51 1454.75C1331.08 1428.19 1346 1392.15 1346 1354.58V858.746" stroke="white" stroke-width="141.667" stroke-linecap="round" stroke-linejoin="round"/>
<path d="M1239.75 115.01C1267.93 86.831 1306.15 71 1346 71C1385.85 71 1424.07 86.831 1452.25 115.01C1480.43 143.19 1496.26 181.409 1496.26 221.261C1496.26 261.112 1480.43 299.331 1452.25 327.511L779.335 1000.43L496.001 1071.26L566.834 787.928L1239.75 115.01Z" stroke="white" stroke-width="141.667" stroke-linecap="round" stroke-linejoin="round"/>
</svg>
