<svg width="1260" height="1386" viewBox="0 0 1260 1386" fill="none" xmlns="http://www.w3.org/2000/svg">
<path d="M63 314.891H188.946H1196.51" stroke="#D55151" stroke-width="125.946" stroke-linecap="round" stroke-linejoin="round"/>
<path d="M1070.56 314.891V1196.51C1070.56 1229.91 1057.29 1261.95 1033.68 1285.57C1010.06 1309.19 978.021 1322.46 944.619 1322.46H314.891C281.488 1322.46 249.453 1309.19 225.834 1285.57C202.215 1261.95 188.945 1229.91 188.945 1196.51V314.891M377.864 314.891V188.946C377.864 155.543 391.133 123.508 414.752 99.8886C438.372 76.2692 470.406 63 503.809 63H755.7C789.103 63 821.138 76.2692 844.757 99.8886C868.377 123.508 881.646 155.543 881.646 188.946V314.891" stroke="#D55151" stroke-width="125.946" stroke-linecap="round" stroke-linejoin="round"/>
</svg>
