<svg width="20" height="15" viewBox="0 0 20 15" fill="none" xmlns="http://www.w3.org/2000/svg">
<path d="M10.8249 0.431975C10.7331 0.298734 10.6104 0.189791 10.4672 0.11453C10.324 0.0392679 10.1646 -5.62668e-05 10.0029 -5.62668e-05C9.8411 -5.62668e-05 9.68176 0.0392679 9.53856 0.11453C9.39537 0.189791 9.27261 0.298734 9.18087 0.431975L0.18087 13.432C0.0766949 13.5819 0.0156052 13.7575 0.00423622 13.9398C-0.00713274 14.122 0.0316544 14.3039 0.116385 14.4656C0.201115 14.6273 0.328546 14.7627 0.484835 14.8571C0.641123 14.9515 0.820291 15.0013 1.00287 15.001L19.0029 15.001C19.185 15.0002 19.3635 14.9498 19.5192 14.8552C19.6748 14.7606 19.8018 14.6253 19.8863 14.464C19.9708 14.3026 20.0098 14.1213 19.999 13.9394C19.9881 13.7576 19.9279 13.5822 19.8249 13.432L10.8249 0.431975Z" fill="white"/>
</svg>
