<svg width="26" height="26" viewBox="0 0 26 26" fill="none" xmlns="http://www.w3.org/2000/svg">
<g clip-path="url(#clip0_14154_553)">
<path d="M11.689 0.47376L1.53271 4.28235C0.619629 4.62415 0.0141602 5.50306 0.0141602 6.47962V17.4708C0.0141602 18.3595 0.51709 19.17 1.30811 19.5656L11.4644 24.6437C12.1235 24.9757 12.8999 24.9757 13.5591 24.6437L23.7153 19.5656C24.5112 19.17 25.0093 18.3546 25.0093 17.4708V6.47962C25.0093 5.50306 24.4038 4.62903 23.4907 4.28724L13.3345 0.478643C12.8071 0.273565 12.2212 0.273565 11.689 0.47376ZM12.5142 3.50599L21.8892 7.02161V7.07532L12.5142 10.8839L3.13916 7.07532V7.02161L12.5142 3.50599ZM14.0767 20.8888V13.6183L21.8892 10.4445V16.9825L14.0767 20.8888Z" fill="black"/>
</g>
<defs>
<clipPath id="clip0_14154_553">
<rect width="25" height="25" fill="white" transform="translate(0.0141602 0.166016)"/>
</clipPath>
</defs>
</svg>
