<svg width="18" height="18" viewBox="0 0 18 18" fill="none" xmlns="http://www.w3.org/2000/svg">
<path d="M1 18H17C17.2652 18 17.5196 17.8946 17.7071 17.7071C17.8946 17.5196 18 17.2652 18 17V1C18 0.734784 17.8946 0.48043 17.7071 0.292893C17.5196 0.105357 17.2652 0 17 0H1C0.734784 0 0.48043 0.105357 0.292893 0.292893C0.105357 0.48043 0 0.734784 0 1V17C0 17.2652 0.105357 17.5196 0.292893 17.7071C0.48043 17.8946 0.734784 18 1 18ZM4.812 5.907C5.06741 5.64846 5.3716 5.44319 5.70693 5.3031C6.04227 5.163 6.40208 5.09086 6.7655 5.09086C7.12892 5.09086 7.48873 5.163 7.82407 5.3031C8.1594 5.44319 8.46359 5.64846 8.719 5.907L8.998 6.186L9.276 5.907C9.53141 5.64846 9.8356 5.44319 10.1709 5.3031C10.5063 5.163 10.8661 5.09086 11.2295 5.09086C11.5929 5.09086 11.9527 5.163 12.2881 5.3031C12.6234 5.44319 12.9276 5.64846 13.183 5.907C13.4417 6.16234 13.647 6.46651 13.7872 6.80185C13.9274 7.1372 13.9996 7.49704 13.9996 7.8605C13.9996 8.22396 13.9274 8.5838 13.7872 8.91915C13.647 9.25449 13.4417 9.55866 13.183 9.814L8.998 14L4.811 9.814C4.55265 9.55846 4.34756 9.25419 4.20763 8.91883C4.06769 8.58347 3.99569 8.22368 3.99578 7.86029C3.99587 7.49691 4.06806 7.13715 4.20817 6.80186C4.34828 6.46657 4.55352 6.16241 4.812 5.907Z" fill="#3DCF64"/>
</svg>
