<svg width="16" height="19" viewBox="0 0 16 19" fill="none" xmlns="http://www.w3.org/2000/svg">
<path d="M0.283765 7.47699L7.06314 0.697621C7.24476 0.516058 7.49105 0.414063 7.74786 0.414062C8.00466 0.414062 8.25096 0.516058 8.43257 0.697621L15.2119 7.47699C15.3936 7.65858 15.4957 7.90487 15.4957 8.16171V17.4456C15.4957 17.7024 15.3937 17.9488 15.2121 18.1304C15.0304 18.312 14.7841 18.4141 14.5272 18.4141H9.68482V11.6347H5.81089V18.4141H0.968482C0.711625 18.4141 0.465288 18.312 0.283662 18.1304C0.102036 17.9488 0 17.7024 0 17.4456V8.16171C5.48523e-05 7.90487 0.102127 7.65858 0.283765 7.47699Z" fill="white"/>
</svg>
