<svg width="959" height="4311" viewBox="0 0 959 4311" fill="none" xmlns="http://www.w3.org/2000/svg">
<path d="M479.425 2394.82C611.656 2394.82 718.85 2287.63 718.85 2155.4C718.85 2023.17 611.656 1915.97 479.425 1915.97C347.194 1915.97 240 2023.17 240 2155.4C240 2287.63 347.194 2394.82 479.425 2394.82Z" stroke="white" stroke-width="478.85" stroke-linecap="round" stroke-linejoin="round"/>
<path d="M479.425 718.85C611.656 718.85 718.85 611.656 718.85 479.425C718.85 347.194 611.656 240 479.425 240C347.194 240 240 347.194 240 479.425C240 611.656 347.194 718.85 479.425 718.85Z" stroke="white" stroke-width="478.85" stroke-linecap="round" stroke-linejoin="round"/>
<path d="M479.425 4070.8C611.656 4070.8 718.85 3963.6 718.85 3831.37C718.85 3699.14 611.656 3591.95 479.425 3591.95C347.194 3591.95 240 3699.14 240 3831.37C240 3963.6 347.194 4070.8 479.425 4070.8Z" stroke="white" stroke-width="478.85" stroke-linecap="round" stroke-linejoin="round"/>
</svg>
