<svg width="16" height="16" viewBox="0 0 16 16" fill="none" xmlns="http://www.w3.org/2000/svg">
<path d="M8 1C9.85652 1 11.637 1.7375 12.9497 3.05025C14.2625 4.36301 15 6.14348 15 8C15 9.85652 14.2625 11.637 12.9497 12.9497C11.637 14.2625 9.85652 15 8 15C6.14348 15 4.36301 14.2625 3.05025 12.9497C1.7375 11.637 1 9.85652 1 8C1 6.14348 1.7375 4.36301 3.05025 3.05025C4.36301 1.7375 6.14348 1 8 1V1ZM8 14C9.5913 14 11.1174 13.3679 12.2426 12.2426C13.3679 11.1174 14 9.5913 14 8C14 6.4087 13.3679 4.88258 12.2426 3.75736C11.1174 2.63214 9.5913 2 8 2C6.4087 2 4.88258 2.63214 3.75736 3.75736C2.63214 4.88258 2 6.4087 2 8C2 9.5913 2.63214 11.1174 3.75736 12.2426C4.88258 13.3679 6.4087 14 8 14V14ZM6.5 5.5C6.83333 5.5 7 5.66667 7 6V10C7 10.3333 6.83333 10.5 6.5 10.5C6.16667 10.5 6 10.3333 6 10V6C6 5.66667 6.16667 5.5 6.5 5.5ZM9.5 5.5C9.83333 5.5 10 5.66667 10 6V10C10 10.3333 9.83333 10.5 9.5 10.5C9.16667 10.5 9 10.3333 9 10V6C9 5.66667 9.16667 5.5 9.5 5.5Z" fill="white"/>
</svg>
