<svg width="16" height="16" viewBox="0 0 16 16" fill="none" xmlns="http://www.w3.org/2000/svg">
<path fill-rule="evenodd" clip-rule="evenodd" d="M8.60012 1.00035C10.2001 1.10035 11.7001 1.90035 12.8001 3.00035C14.1001 4.40035 14.8001 6.10035 14.8001 8.10035C14.8001 9.70035 14.2001 11.2004 13.2001 12.5004C12.2001 13.7004 10.8001 14.6004 9.20012 14.9004C7.60012 15.2004 6.00012 15.0004 4.60012 14.2004C3.20012 13.4004 2.10012 12.2004 1.50012 10.7004C0.90012 9.20035 0.80012 7.50035 1.30012 6.00035C1.80012 4.40035 2.70012 3.10035 4.10012 2.20035C5.40012 1.30035 7.00012 0.900352 8.60012 1.00035ZM9.10012 13.9004C10.4001 13.6004 11.6001 12.9004 12.5001 11.8004C13.3001 10.7004 13.8001 9.40035 13.7001 8.00035C13.7001 6.40035 13.1001 4.80035 12.0001 3.70035C11.0001 2.70035 9.80012 2.10035 8.40012 2.00035C7.10012 1.90035 5.70012 2.20035 4.60012 3.00035C3.50012 3.80035 2.70012 4.90035 2.30012 6.30035C1.90012 7.60035 1.90012 9.00035 2.50012 10.3004C3.10012 11.6004 4.00012 12.6004 5.20012 13.3004C6.40012 14.0004 7.80012 14.2004 9.10012 13.9004V13.9004Z" fill="white"/>
<path fill-rule="evenodd" clip-rule="evenodd" d="M6 4.99998L6.777 4.58398L11.277 7.58398V8.41598L6.777 11.416L6 11V4.99998ZM7 5.93398V10.066L10.099 7.99998L7 5.93398Z" fill="white"/>
</svg>
